name ./resultDataOpenSim/trcMotMarkerGrf/sub06/grf-14-05.mot
datacolumns 19
datarows 12
range 1.62800000 1.67200000
endheader

                time	     ground_force_vx	     ground_force_vy	     ground_force_vz	     ground_force_px	     ground_force_py	     ground_force_pz	   l_ground_force_vx	   l_ground_force_vy	   l_ground_force_vz	   l_ground_force_px	   l_ground_force_py	   l_ground_force_pz	     ground_torque_x	     ground_torque_y	     ground_torque_z	   l_ground_torque_x	   l_ground_torque_y	   l_ground_torque_z	
          1.62800000	        159.64169120	        684.53928875	         -8.64601139	          0.87943591	          0.00000000	         -0.00806243	          0.00000000	          0.00000000	          0.00000000	          0.00000000	          0.00000000	          0.00000000	          0.00000000	          2.86540018	          0.00000000	          0.00000000	          0.00000000	          0.00000000	
          1.63200000	        163.83967894	        680.82619271	         -7.90773497	          0.87981555	          0.00000000	         -0.00834611	          0.00000000	          0.00000000	          0.00000000	          0.00000000	          0.00000000	          0.00000000	          0.00000000	          2.84699509	          0.00000000	          0.00000000	          0.00000000	          0.00000000	
          1.63600000	        168.07391230	        675.84944149	         -7.44209271	          0.88018704	          0.00000000	         -0.00862706	          0.00000000	          0.00000000	          0.00000000	          0.00000000	          0.00000000	          0.00000000	          0.00000000	          2.87594443	          0.00000000	          0.00000000	          0.00000000	          0.00000000	
          1.64000000	        172.63944419	        669.56179271	         -7.10310199	          0.88049163	          0.00000000	         -0.00890509	          0.00000000	          0.00000000	          0.00000000	          0.00000000	          0.00000000	          0.00000000	          0.00000000	          2.93950029	          0.00000000	          0.00000000	          0.00000000	          0.00000000	
          1.64400000	        177.75969436	        661.81145893	         -6.72016269	          0.88063370	          0.00000000	         -0.00918263	          0.00000000	          0.00000000	          0.00000000	          0.00000000	          0.00000000	          0.00000000	          0.00000000	          3.01441070	          0.00000000	          0.00000000	          0.00000000	          0.00000000	
          1.64800000	        183.45005161	        652.32426179	         -6.16414014	          0.88056975	          0.00000000	         -0.00945665	          0.00000000	          0.00000000	          0.00000000	          0.00000000	          0.00000000	          0.00000000	          0.00000000	          3.07377401	          0.00000000	          0.00000000	          0.00000000	          0.00000000	
          1.65200000	        189.52499017	        640.76349151	         -5.34389323	          0.88033145	          0.00000000	         -0.00972675	          0.00000000	          0.00000000	          0.00000000	          0.00000000	          0.00000000	          0.00000000	          0.00000000	          3.09602317	          0.00000000	          0.00000000	          0.00000000	          0.00000000	
          1.65600000	        195.69979915	        626.76985531	         -4.19778523	          0.87995356	          0.00000000	         -0.00999335	          0.00000000	          0.00000000	          0.00000000	          0.00000000	          0.00000000	          0.00000000	          0.00000000	          3.07203770	          0.00000000	          0.00000000	          0.00000000	          0.00000000	
          1.66000000	        201.63722725	        609.91925574	         -2.71267235	          0.87943156	          0.00000000	         -0.01024336	          0.00000000	          0.00000000	          0.00000000	          0.00000000	          0.00000000	          0.00000000	          0.00000000	          3.00724458	          0.00000000	          0.00000000	          0.00000000	          0.00000000	
          1.66400000	        206.89205200	        589.68544126	         -0.91379491	          0.87874695	          0.00000000	         -0.01045763	          0.00000000	          0.00000000	          0.00000000	          0.00000000	          0.00000000	          0.00000000	          0.00000000	          2.91799094	          0.00000000	          0.00000000	          0.00000000	          0.00000000	
          1.66800000	        210.86314345	        565.52006675	          1.15259655	          0.87791362	          0.00000000	         -0.01063188	          0.00000000	          0.00000000	          0.00000000	          0.00000000	          0.00000000	          0.00000000	          0.00000000	          2.82404143	          0.00000000	          0.00000000	          0.00000000	          0.00000000	
          1.67200000	        212.84434401	        537.01184139	          3.38701647	          0.87700764	          0.00000000	         -0.01076787	          0.00000000	          0.00000000	          0.00000000	          0.00000000	          0.00000000	          0.00000000	          0.00000000	          2.74068558	          0.00000000	          0.00000000	          0.00000000	          0.00000000	
